# Blender v3.0.0 OBJ File: ''
# www.blender.org
mtllib cube.mtl
v -0.890755 0.890755 -1.000000
v 0.890755 0.890755 -1.000000
v 0.890755 -0.890755 -1.000000
v -0.890755 -0.890755 -1.000000
v -0.890755 1.000000 0.890755
v 0.890755 1.000000 0.890755
v 0.890755 1.000000 -0.890755
v -0.890755 1.000000 -0.890755
v 1.000000 0.890755 0.890755
v 1.000000 -0.890755 0.890755
v 1.000000 -0.890755 -0.890755
v 1.000000 0.890755 -0.890755
v -0.890755 -1.000000 -0.890755
v 0.890755 -1.000000 -0.890755
v 0.890755 -1.000000 0.890755
v -0.890755 -1.000000 0.890755
v -0.890755 -0.890755 1.000000
v 0.890755 -0.890755 1.000000
v 0.890755 0.890755 1.000000
v -0.890755 0.890755 1.000000
v -1.000000 -0.890755 0.890755
v -1.000000 0.890755 0.890755
v -1.000000 0.890755 -0.890755
v -1.000000 -0.890755 -0.890755
vn -0.0000 0.0000 -1.0000
vn 0.0000 1.0000 0.0000
vn 1.0000 0.0000 -0.0000
vn 0.0000 -1.0000 0.0000
vn 0.0000 0.0000 1.0000
vn -1.0000 0.0000 0.0000
vn -0.5774 -0.5773 -0.5774
vn 0.5773 -0.5774 -0.5774
vn -0.5773 -0.5774 0.5774
vn 0.5774 -0.5773 0.5774
vn -0.5774 0.5773 -0.5774
vn 0.5773 0.5774 -0.5774
vn -0.5773 0.5774 0.5774
vn 0.5774 0.5773 0.5774
vn -0.7071 -0.7071 0.0000
vn -0.0000 -0.7071 -0.7071
vn 0.7071 -0.7071 -0.0000
vn 0.0000 -0.7071 0.7071
vn -0.7071 0.0000 0.7071
vn 0.7071 0.0000 0.7071
vn 0.0000 0.7071 0.7071
vn -0.7071 0.7071 0.0000
vn 0.7071 0.7071 -0.0000
vn -0.0000 0.7071 -0.7071
vn -0.7071 0.0000 -0.7071
vn 0.7071 0.0000 -0.7071
usemtl 0
s off
f 2//1 4//1 1//1
f 6//2 8//2 5//2
f 10//3 12//3 9//3
f 14//4 16//4 13//4
f 18//5 20//5 17//5
f 22//6 24//6 21//6
f 2//1 3//1 4//1
f 6//2 7//2 8//2
f 10//3 11//3 12//3
f 14//4 15//4 16//4
f 18//5 19//5 20//5
f 22//6 23//6 24//6
usemtl 1
f 24//7 4//7 13//7
f 3//8 11//8 14//8
f 21//9 16//9 17//9
f 10//10 18//10 15//10
f 23//11 8//11 1//11
f 12//12 2//12 7//12
f 22//13 20//13 5//13
f 9//14 6//14 19//14
f 24//15 16//15 21//15
f 3//16 13//16 4//16
f 10//17 14//17 11//17
f 17//18 15//18 18//18
f 21//19 20//19 22//19
f 9//20 18//20 10//20
f 5//21 19//21 6//21
f 22//22 8//22 23//22
f 12//23 6//23 9//23
f 1//24 7//24 2//24
f 23//25 4//25 24//25
f 11//26 2//26 12//26
f 24//15 13//15 16//15
f 3//16 14//16 13//16
f 10//17 15//17 14//17
f 17//18 16//18 15//18
f 21//19 17//19 20//19
f 9//20 19//20 18//20
f 5//21 20//21 19//21
f 22//22 5//22 8//22
f 12//23 7//23 6//23
f 1//24 8//24 7//24
f 23//25 1//25 4//25
f 11//26 3//26 2//26
